<svg height="512" viewBox="0 0 60 60" width="512" xmlns="http://www.w3.org/2000/svg"><g id="Page-1" fill="none" fill-rule="evenodd"><g id="014---Sleepy-Panda" fill="rgb(0,0,0)" fill-rule="nonzero"><path id="Shape" d="m60 40c-.0013953-3.0732733-2.3247674-5.6486191-5.3816783-5.9653308-3.056911-.3167116-5.8589053 1.72762-6.4903217 4.7353308-1.5296372-.4276979-3.0945864-.7171935-4.676-.865-.1859913-.9249544-.4372873-1.8355679-.752-2.725 1.9449997-1.7570476 2.7443077-4.4541265 2.0707356-6.9872157s-2.7069445-4.4769319-5.2677775-5.0358365c-2.5608331-.5589046-5.2192123.3609582-6.8869581 2.3830522-1.5049749-.5133454-3.0537648-.8879069-4.627-1.119-1.5548987-1.6514892-3.5468366-2.8274401-5.744-3.391-.2990641-.075574-.6162687-.0088993-.8595985.1806829-.2433297.1895822-.3855486.4808519-.3854015.7893171v.394c-.9748082-.2799547-1.9859615-.4127529-3-.394-.3964433.0034481-.753414.2407748-.91.605-.1569756.367238-.0837637.7924151.187 1.086.1992273.2403465.3539844.514304.457.809-.474.114-.924.25-1.357.4-1.6834563-1.795492-4.2927064-2.3807684-6.58177567-1.4763467s-3.79363127 3.115084-3.79522433 5.5763467c-.005251 1.7727248.779565 3.4556254 2.141 4.591-.6196396 1.7576171-1.07753957 3.5681296-1.368 5.409-.16110275 1.4625518-.8540119 2.8149168-1.947 3.8-.011.011-.023.021-.033.032l-.2.193c-1.214 1.183-2.593 2.526-2.593 6.535.01971666 1.1697515.31650034 2.3181605.866 3.351-1.80115094.3693475-3.0299187 2.0427222-2.84311097 3.8718382.18680772 1.8291159 1.72848197 3.2195452 3.56711097 3.2171618h13.27c.2657558-.0034365.5308606-.0271722.793-.071.792.046 1.619.071 2.487.071 1.9499373.0023666 3.8976646-.1312912 5.829-.4.5001251.2603258 1.0551843.3974621 1.619.4h29.385c1.663526.0055402 3.0176356-1.3364911 3.027-3v-3c-.0036569-.8684199-.3873443-1.6917034-1.05-2.253-.0893193-2.3195347-.7439644-4.5821279-1.907-6.591 1.8283929-1.07453 2.9528736-3.0352411 2.957-5.156zm-11.323 1.033c2.1442628.6951365 4.0661135 1.9458921 5.57 3.625.1906713.2150801.3664144.4429448.526.682 1.1880944 1.6686781 1.9158275 3.6207962 2.11 5.66h-1.938c-1.574 0-4.308.737-4.923 5.672-.0521344.4488532.0016363.9036778.157 1.328h-4.767c1.0232651-1.0956797 1.5910482-2.5398082 1.588-4.039-.012-3.964-1.839-5.348-3.531-5.781.3497794-1.0823432.5289245-2.2125432.531-3.35.0229582-1.6303222-.0515078-3.2605599-.223-4.882 1.6683798.1796643 3.3117302.543549 4.9 1.085zm-10.677-16.033c1.9403395-.0040848 3.7071116 1.1169885 4.5297909 2.8742968.8226794 1.7573083.5520774 3.832173-.6937909 5.3197032-1.5616634-3.0418421-4.1142139-5.4599921-7.236-6.855.9222321-.8618081 2.1377707-1.3405158 3.4-1.339zm-30 4c-.00408338-1.5134439.84866609-2.8988492 2.2017001-3.5769555 1.353034-.6781063 2.973285-.5321061 4.1832999.3769555-2.3589963 1.3352396-4.2456996 3.3693852-5.4 5.822-.63614026-.725209-.98630533-1.6573235-.985-2.622zm.746 10.336c.168-.995.373-2.023.641-3.045 1.8744669-.6443065 3.9525639-.1180967 5.2944996 1.3406582 1.3419356 1.4587549 1.6932602 3.5734547.895092 5.3877547-.7981683 1.8143-2.5944856 2.9841838-4.5765916 2.9805871-1.71644566-.0058961-3.31099482-.8880272-4.228-2.339 1.08609281-1.2050323 1.77525237-2.714969 1.974-4.325zm-5.156 18.664c-.8420111-.0026077-1.53580201-.661586-1.58171486-1.5023484-.04591285-.8407625.5719947-1.5713707 1.40871486-1.6656516l.179-.023c.161-.02.344-.051.515-.074 1.27428215 1.4163571 2.84759126 2.5316099 4.606 3.265zm.41-8.44c0-2.526.564-3.578 1.356-4.452 1.9434381 2.6687443 5.4887226 3.6144875 8.503183 2.2683166s4.6765727-4.617387 3.9864911-7.8458441c-.6900815-3.228457-3.5442906-5.534311-6.8456741-5.5304725-.3033841.0020902-.6063285.0234667-.907.064 1.4-3.692 3.944-6.936 9.027-7.809.528775-.0914578.8910997-.5839722.821-1.116-.043291-.338808-.115215-.6733382-.215-1 .5579586.0690071 1.0933878.2620623 1.567.565.2856077.2855256.7149252.3712321 1.0882724.2172564.3733472-.1539756.6174319-.5174063.6187276-.9212564v-.626c1.4331515.5848585 2.7129912 1.4907702 3.741 2.648.1582755.1789214.3753717.2952736.612.328 12.907 1.797 14.647 10.35 14.647 18.48-.0058277 1.089532-.2091143 2.1689837-.6 3.186-1.8726504-.0246997-3.7048626.5453063-5.233 1.628-.693.419-1.48.894-2.616 1.461-2.0138174.9330802-4.1695931 1.5225554-6.378 1.744-1.1152218.1279454-2.1058076.7717126-2.6756434 1.7388615-.5698358.9671488-.6528979 2.1456212-.2243566 3.1831385-1.3728878.1464223-2.7523398.2228546-4.133.229-12.766 0-16.14-5.521-16.14-8.44zm33 8.44h-9.412c-.8400478-.0018801-1.5333074-.6576819-1.581798-1.4963311s.564565-1.569982 1.398798-1.6686689c2.4393843-.247892 4.8198202-.9036781 7.042-1.94 1.207-.6 2.066-1.123 2.756-1.539 1.3845957-1.0127422 3.087115-1.4940046 4.797-1.356 1.283 0 2.99.411 3 3.967.0017357 1.0519678-.4186685 2.0606495-1.167 2.8-.7893229.7874279-1.8580704 1.2306723-2.973 1.233zm21-1c-.0082282.5594082-.4675711 1.0066749-1.027 1h-3.94c-.3033455.0010836-.5925356-.1282143-.794-.355-.1785357-.1971479-.2631247-.4618532-.232-.726.493-3.919 2.332-3.919 2.938-3.919h2.028c.5594289-.0066749 1.0187718.4405918 1.027 1zm-2.1-13.481c-.048-.057-.09-.111-.141-.17-1.555793-1.7428034-3.5119676-3.0812387-5.7-3.9.2605973-1.8652646 1.7894168-3.2946507 3.6679703-3.4294081s3.5957425 1.0617773 4.1199099 2.870747-.2872973 3.7382076-1.9468802 4.6286611z"/><path id="Shape" d="m35 43c0-3.8659932-3.1340068-7-7-7s-7 3.1340068-7 7 3.1340068 7 7 7c3.8641657-.0044086 6.9955914-3.1358343 7-7zm-12 0c0-2.7614237 2.2385763-5 5-5s5 2.2385763 5 5-2.2385763 5-5 5c-2.7600532-.0033061-4.9966939-2.2399468-5-5z"/><path id="Shape" d="m11 43h2c.5522847 0 1-.4477153 1-1s-.4477153-1-1-1h-2c-.5522847 0-1 .4477153-1 1s.4477153 1 1 1z"/><path id="Shape" d="m29 43c0-.5522847-.4477153-1-1-1h-2c-.5522847 0-1 .4477153-1 1s.4477153 1 1 1h2c.5522847 0 1-.4477153 1-1z"/><path id="Shape" d="m18.553 47.105-1.356.678-.49-.49c-.3923789-.3789722-1.0160848-.3735524-1.4018186.0121814s-.3911536 1.0094397-.0121814 1.4018186l1 1c.1874927.1875494.4418052.2929434.707.293.1546883.0013035.3076128-.0329078.447-.1l2-1c.4942949-.2468713.6948713-.8477051.448-1.342s-.8477051-.6948713-1.342-.448z"/><path id="Shape" d="m26.169 17.993c.4217313 1.202292 1.5568872 2.0070458 2.831 2.007h10c1.6568542 0 3-1.3431458 3-3s-1.3431458-3-3-3h-1.448l3.322-2.658c.9943604-.7960159 1.3776608-2.13316027.9560211-3.33508114-.4216398-1.20192088-1.5562889-2.00656104-2.8300211-2.00691886h-10c-1.6568542 0-3 1.34314575-3 3 0 1.6568542 1.3431458 3 3 3h1.448l-3.322 2.658c-.99468.7957547-1.3783817 2.1328971-.957 3.335zm2.206-1.774 5.548-4.438c.3314932-.2650794.4595326-.7105444.3193866-1.1111863-.1401459-.4006419-.5179406-.6691645-.9423866-.6698137h-4.3c-.5522847 0-1-.44771525-1-1s.4477153-1 1-1h10c.424813-.00019929.8033866.26802335.9440546.6688708.1406679.40084745.0127245.84682031-.3190546 1.1121292l-5.548 4.438c-.3314932.2650794-.4595326.7105444-.3193866 1.1111863.1401459.4006419.5179406.6691645.9423866.6698137h4.3c.5522847 0 1 .4477153 1 1s-.4477153 1-1 1h-10c-.424813.0001993-.8033866-.2680233-.9440546-.6688708-.1406679-.4008474-.0127245-.8468203.3190546-1.1121292z"/><path id="Shape" d="m57 8h-1.448l3.322-2.658c.9943604-.79601592 1.3776608-2.13316027.9560211-3.33508114-.4216398-1.20192088-1.5562889-2.00656104-2.8300211-2.00691886h-10c-1.6568542 0-3 1.34314575-3 3s1.3431458 3 3 3h1.448l-3.322 2.658c-.9943604.79601592-1.3776608 2.1331603-.9560211 3.3350811.4216398 1.2019209 1.5562889 2.0065611 2.8300211 2.0069189h10c1.6568542 0 3-1.3431458 3-3 0-1.65685425-1.3431458-3-3-3zm0 4h-10c-.424813.0001993-.8033866-.2680233-.9440546-.6688708-.1406679-.4008474-.0127245-.8468203.3190546-1.1121292l5.548-4.438c.3314932-.26507938.4595326-.71054442.3193866-1.11118634-.1401459-.40064191-.5179406-.66916444-.9423866-.66981366h-4.3c-.5522847 0-1-.44771525-1-1s.4477153-1 1-1h10c.424813-.00019929.8033866.26802335.9440546.6688708.1406679.40084745.0127245.84682031-.3190546 1.1121292l-5.548 4.438c-.3314932.26507938-.4595326.71054442-.3193866 1.11118634.1401459.40064191.5179406.66916444.9423866.66981366h4.3c.5522847 0 1 .4477153 1 1s-.4477153 1-1 1z"/></g></g></svg>