<svg width="54" height="54" viewBox="0 0 54 54" fill="none" xmlns="http://www.w3.org/2000/svg">
<g clip-path="url(#clip0)">
<path d="M53.7459 27.2216L50.9323 24.3875C50.7815 23.1798 49.9966 19.1679 46.1127 16.8253C46.0952 16.8147 46.0773 16.8058 46.0593 16.7966C45.8056 16.0558 45.5581 15.4291 45.5411 15.3861C45.4427 15.1375 45.236 14.9477 44.9801 14.8706C44.7243 14.7935 44.4471 14.8378 44.2277 14.9905C44.1605 15.0374 43.8504 15.2575 43.4706 15.5877C42.4459 15.0926 39.4913 13.7999 35.5043 13.2043C35.2614 12.9547 34.9703 12.7478 34.6338 12.5898C33.5931 12.1016 31.6768 11.9672 29.4197 13.0539C29.342 13.0913 29.266 13.1376 29.1906 13.1881C24.0178 12.1896 19.3663 12.1025 15.3644 12.9322C11.9404 13.6421 8.96347 15.023 6.51639 17.0366C1.15952 21.445 0 27.5067 0 28.7709C0 30.7877 1.15636 32.1755 1.75099 32.7559C0.720457 37.7049 0.924117 40.8077 0.935402 40.9636C0.96852 41.4211 1.34916 41.7752 1.80795 41.7752H7.40623C7.88927 41.7752 8.28098 41.3837 8.28098 40.9005C8.28098 40.0346 8.02902 39.4024 7.70871 38.9646C8.32844 38.2612 9.36193 37.061 10.4542 35.6764C10.6786 37.224 11.1676 39.348 12.2357 41.3175C12.3887 41.5995 12.6839 41.7751 13.0047 41.7751H19.5361C19.7775 41.7751 20.0083 41.6755 20.1735 41.4993C20.3389 41.3233 20.424 41.0869 20.409 40.8458C20.4037 40.7613 20.3489 39.9969 20.059 39.2012C19.6699 38.134 19.0829 37.6307 18.5447 37.4025V34.3388C20.3674 34.3089 22.2781 34.0967 23.9786 33.5686C24.1007 37.4396 25.1708 40.961 25.2316 41.1583C25.3448 41.5251 25.6838 41.7751 26.0674 41.7751H32.5988C33.0678 41.7751 33.4532 41.4052 33.4728 40.9368C33.4779 40.8159 33.4997 39.7337 32.7336 38.935C32.5112 38.7031 32.1671 38.4422 31.6639 38.2898C31.8483 37.114 32.4603 35.2936 33.3371 33.3601C33.4708 33.0651 33.6074 32.7757 33.7458 32.4917C34.9325 34.839 37.3935 39.2469 40.0653 41.3079C40.4618 41.6137 40.9534 41.7753 41.4868 41.7753H46.594C46.8291 41.7753 47.0545 41.6806 47.2189 41.5127C47.3834 41.3448 47.4734 41.1174 47.4685 40.8824C47.4466 39.8284 46.7511 38.279 44.9403 38.1663C44.3274 37.4936 43.0318 34.1692 42.05 31.0799C43.0362 31.1919 43.9089 31.3253 44.5039 31.4829C47.1929 32.1947 50.1333 32.4326 50.2572 32.4424C50.2803 32.4443 50.3033 32.445 50.3262 32.445C50.6002 32.445 50.8599 32.3164 51.0259 32.0951L53.825 28.3629C54.0855 28.0155 54.0519 27.5297 53.7459 27.2216ZM43.6119 18.0244C43.7861 17.7342 44.0586 17.4327 44.3361 17.1673C44.4761 17.5664 44.6237 18.0132 44.7325 18.4078C44.499 18.5943 44.0373 18.8619 43.5002 19.1268C43.456 18.6973 43.4685 18.2634 43.6119 18.0244ZM5.82736 38.4442C5.62032 38.6705 5.50346 38.9751 5.59069 39.2692C5.6758 39.5565 5.86027 39.7666 6.14545 39.8479C6.17984 39.8695 6.24934 39.9215 6.3199 40.0257H2.66277C2.66467 39.5125 2.68639 38.7686 2.76518 37.8291C2.91199 36.0782 3.29263 33.2703 4.2717 29.8367C4.3489 29.5662 4.55129 29.3377 4.81317 29.2259C5.79488 28.8068 7.74341 28.2095 9.56813 27.8788C12.2596 27.3913 12.9578 27.7686 13.0625 27.842C13.0567 29.8058 8.62281 35.3859 5.82736 38.4442ZM13.5384 40.0258C12.2905 37.4558 12.0635 34.6288 12.0223 33.7286C13.0652 33.9665 14.807 34.2305 16.7949 34.3152V38.1014C16.7949 38.5846 17.1866 38.9762 17.6697 38.9762C18.077 38.9762 18.3358 39.504 18.4873 40.0258H13.5384ZM24.7983 26.8747C24.6123 27.8412 24.4367 28.754 24.2771 29.5273C24.1303 30.239 24.042 30.9753 23.9988 31.716C20.4557 33.0333 15.4413 32.6 13.0077 32.1463C14.8102 29.3384 14.8119 28.2568 14.8119 27.838C14.8119 27.2329 14.5291 26.7128 14.0155 26.3735C11.9319 24.9977 5.70291 26.9439 4.12615 27.6169C3.3731 27.9384 2.81275 28.5725 2.58915 29.3569C2.47008 29.7746 2.35976 30.1831 2.25661 30.5827C1.98123 30.1086 1.7493 29.4947 1.7493 28.7708C1.7493 27.8586 2.77119 22.3841 7.62782 18.3875C12.4177 14.4463 19.2563 13.2224 27.9631 14.7413C26.764 17.0572 25.852 21.3994 24.7983 26.8747ZM29.8578 39.0618C29.8725 39.5341 30.2597 39.9093 30.7321 39.9093C30.9743 39.9093 31.1655 39.9477 31.3108 40.0259H26.7311C26.2917 38.3577 25.2164 33.6334 25.9907 29.8809C26.1526 29.0962 26.3293 28.1778 26.5164 27.2055C27.0001 24.6919 27.6021 21.5638 28.2839 19.0488C29.3242 15.211 30.0448 14.695 30.1786 14.6305C31.54 13.975 33.0669 13.7874 33.8911 14.1741C34.2423 14.3389 34.4513 14.5973 34.5489 14.9876C34.6446 15.3702 34.8056 15.8896 34.9922 16.4912C35.8002 19.0963 37.4816 24.517 35.712 26.2864C33.1051 28.8931 29.7677 36.1763 29.8578 39.0618ZM44.7278 39.9091C44.9685 39.9091 45.1379 39.9553 45.262 40.0257H41.4862C41.3449 40.0257 41.2195 39.989 41.1332 39.9224C38.2483 37.6971 35.4551 32.0499 34.7642 30.5894C35.6003 30.62 37.9124 30.7149 40.161 30.8983C40.203 31.0359 40.8282 33.0702 41.6055 35.1427C43.1079 39.1496 43.862 39.9091 44.7278 39.9091ZM49.9204 30.653C48.996 30.5578 46.8764 30.3008 44.9516 29.7913C42.907 29.2501 38.1711 28.9836 35.8346 28.8811C36.2212 28.3355 36.5973 27.8748 36.9488 27.5232C39.4649 25.0071 37.711 19.3516 36.6629 15.9726C36.5679 15.6661 36.4801 15.3828 36.4058 15.1335C39.0732 15.6518 41.1543 16.4665 42.2276 16.9427C42.1872 17.0026 42.1483 17.0632 42.1116 17.1243C41.3628 18.3722 41.9109 20.2714 42.0282 20.6395C42.1024 20.8719 42.2703 21.0627 42.4911 21.166C42.6083 21.2208 42.7349 21.2484 42.8615 21.2484C42.9737 21.2484 43.086 21.2268 43.1919 21.1835C43.2237 21.1705 43.981 20.8607 44.7313 20.4601C45.4252 20.0898 46.0716 19.6817 46.3705 19.1788C47.6527 20.3153 48.3624 21.691 48.7522 22.8016C48.7526 22.8246 48.7532 22.8477 48.7556 22.8709C48.7934 23.2492 48.274 24.2867 47.7846 24.9805C47.5056 25.3748 47.599 25.9206 47.9932 26.1998C48.1467 26.3084 48.323 26.3607 48.4979 26.3607C48.7721 26.3607 49.0422 26.232 49.2126 25.9912C49.2918 25.8794 49.4133 25.7013 49.5507 25.4793L51.9716 27.9177L49.9204 30.653Z" fill="white"/>
</g>
<defs>
<clipPath id="clip0">
<rect width="54" height="54" fill="white"/>
</clipPath>
</defs>
</svg>
