<svg width="25" height="21" viewBox="0 0 25 21" fill="none" xmlns="http://www.w3.org/2000/svg">
<path d="M9.08436 0V18.8541L13.174 20.1045V4.31633C13.174 3.86184 13.1739 3.63542 13.4007 3.40772C13.5141 3.18092 13.7407 3.18097 13.9675 3.29437C14.5354 3.52117 14.8778 3.97588 14.8778 4.88487V11.13C16.2404 11.8113 17.3748 11.8113 18.2838 11.13C19.1928 10.4487 19.6476 9.42774 19.6476 7.72406C19.6485 5.90698 19.307 4.771 18.5123 3.8629C17.831 2.95391 16.5825 2.1584 14.7645 1.5905C12.4929 0.90921 10.5612 0.341093 9.08436 0ZM7.94903 11.8137L2.72409 13.6309L1.93058 13.971C0.681391 14.5389 0 15.1069 0 15.6748C0.1134 16.3561 0.340256 17.266 2.04394 17.8339C3.63422 18.4018 4.88357 18.6286 8.06413 17.7205V15.6748C4.99608 16.6963 4.54237 16.5835 4.08787 16.3567C3.63338 16.1299 3.63266 15.9016 3.74606 15.7882C4.08715 15.5614 5.33656 15.1063 5.33656 15.1063L7.94903 14.1977V11.8137ZM19.5063 12.6979C19.1372 12.6855 18.7681 12.6922 18.3989 12.7205C17.1497 12.7205 16.0129 12.948 14.6494 13.2891V15.6748L17.1485 14.7645L18.5105 14.311C18.5105 14.311 19.0798 14.1977 19.4209 14.0843C19.9888 13.9709 20.6696 14.1977 20.6696 14.1977C21.0107 14.1977 21.2381 14.3101 21.2381 14.5378C21.3515 14.7646 21.1241 14.8795 20.5562 15.1063L19.3075 15.5615L14.7645 17.2636V19.6494L16.8084 18.9675L22.4868 16.9235L23.1687 16.5817C24.5313 16.1272 25.0993 15.5591 24.9859 14.8778C24.9859 14.1974 24.1912 13.7436 22.8286 13.2891C21.721 12.9482 20.6138 12.7351 19.5063 12.6979Z" fill="white"/>
</svg>
