<svg width="25" height="25" viewBox="0 0 25 25" fill="none" xmlns="http://www.w3.org/2000/svg">
<path d="M21.875 14.4146C20.3125 16.2068 18.75 17.9989 17.1875 19.7916C15.9724 19.7916 14.7568 19.7916 13.5417 19.7916C12.3266 20.8333 11.1109 21.875 9.89583 22.9166C9.375 22.9166 8.85417 22.9166 8.33333 22.9166C8.33333 21.875 8.33333 20.8333 8.33333 19.7916C6.5974 19.7916 4.86094 19.7916 3.125 19.7916C3.125 15.9213 3.125 12.0505 3.125 8.18019C3.88281 6.66873 4.6401 5.15727 5.39792 3.64581C10.8901 3.64581 16.3828 3.64581 21.875 3.64581C21.875 7.2354 21.875 10.825 21.875 14.4146Z" fill="white"/>
<path d="M20.3125 13.7338C19.4443 14.7114 18.5766 15.689 17.7083 16.6666C16.4932 16.6666 15.2776 16.6666 14.0625 16.6666C12.8474 17.7083 11.6318 18.75 10.4167 19.7916C10.4167 18.75 10.4167 17.7083 10.4167 16.6666C9.0276 16.6625 7.63906 16.6583 6.25 16.6541C6.25 12.8385 6.25 9.02342 6.25 5.20831C10.9375 5.20831 15.625 5.20831 20.3125 5.20831C20.3125 8.04998 20.3125 10.8916 20.3125 13.7338Z" fill="#9147FF"/>
<path d="M12.5 8.33331H10.9375V13.5416H12.5V8.33331Z" fill="white"/>
<path d="M17.1875 8.33331H15.625V13.5416H17.1875V8.33331Z" fill="white"/>
</svg>
